{
  "asset": {
    "generator": "Babylon.js v7.27.0",
    "version": "2.0"
  },
  "extensionsUsed": [
    "KHR_materials_specular"
  ],
  "extensions": {},
  "buffers": [
    {
      "name": "2024_8_27_ccc800c7b8ca4cacb9852075e97435db",
      "byteLength": 865352,
      "uri": "data:application/octet-stream;base64,"
    }
  ],
  "nodes": [
    {
      "name": "Line001",
      "translation": [
        9.95168399810791,
        -0.09830348938703537,
        2.137091875076294
      ],
      "scale": [
        0.0010000000474974513,
        0.0010000000474974513,
        0.0010000000474974513
      ],
      "children": [
        1,
        2,
        3,
        4,
        5
      ],
      "rotation": [
        0,
        0,
        0,
        1
      ]
    },
    {
      "name": "Line001_primitive0",
      "mesh": 0
    },
    {
      "name": "Line001_primitive1",
      "mesh": 1
    },
    {
      "name": "Line001_primitive2",
      "mesh": 2
    },
    {
      "name": "Line001_primitive3",
      "mesh": 3
    },
    {
      "name": "Line001_primitive4",
      "mesh": 4
    }
  ],
  "meshes": [
    {
      "primitives": [
        {
          "attributes": {
            "POSITION": 0,
            "NORMAL": 1,
            "TEXCOORD_0": 2
          },
          "indices": 3,
          "material": 0,
          "mode": 4
        }
      ]
    },
    {
      "primitives": [
        {
          "attributes": {
            "POSITION": 4,
            "NORMAL": 5,
            "TEXCOORD_0": 6
          },
          "indices": 7,
          "material": 4,
          "mode": 4
        }
      ]
    },
    {
      "primitives": [
        {
          "attributes": {
            "POSITION": 8,
            "NORMAL": 9,
            "TEXCOORD_0": 10
          },
          "indices": 11,
          "material": 1,
          "mode": 4
        }
      ]
    },
    {
      "primitives": [
        {
          "attributes": {
            "POSITION": 12,
            "NORMAL": 13,
            "TEXCOORD_0": 14
          },
          "indices": 15,
          "material": 2,
          "mode": 4
        }
      ]
    },
    {
      "primitives": [
        {
          "attributes": {
            "POSITION": 16,
            "NORMAL": 17,
            "TEXCOORD_0": 18
          },
          "indices": 19,
          "material": 3,
          "mode": 4
        }
      ]
    }
  ],
  "scenes": [
    {
      "nodes": [
        0
      ]
    }
  ],
  "scene": 0,
  "bufferViews": [
    {
      "buffer": 0,
      "byteLength": 2940,
      "name": "position - Line001_primitive0",
      "byteStride": 12,
      "byteOffset": 0,
      "target": 34962
    },
    {
      "buffer": 0,
      "byteLength": 2940,
      "byteOffset": 2944,
      "name": "normal - Line001_primitive0",
      "byteStride": 12,
      "target": 34962
    },
    {
      "buffer": 0,
      "byteLength": 1960,
      "byteOffset": 5888,
      "name": "uv - Line001_primitive0",
      "byteStride": 8,
      "target": 34962
    },
    {
      "buffer": 0,
      "byteLength": 2292,
      "byteOffset": 7848,
      "name": "Indices - Line001_primitive0",
      "target": 34963
    },
    {
      "buffer": 0,
      "byteLength": 552,
      "byteOffset": 10144,
      "name": "position - Line001_primitive1",
      "byteStride": 12,
      "target": 34962
    },
    {
      "buffer": 0,
      "byteLength": 552,
      "byteOffset": 10696,
      "name": "normal - Line001_primitive1",
      "byteStride": 12,
      "target": 34962
    },
    {
      "buffer": 0,
      "byteLength": 368,
      "byteOffset": 11248,
      "name": "uv - Line001_primitive1",
      "byteStride": 8,
      "target": 34962
    },
    {
      "buffer": 0,
      "byteLength": 432,
      "byteOffset": 11616,
      "name": "Indices - Line001_primitive1",
      "target": 34963
    },
    {
      "buffer": 0,
      "byteLength": 60,
      "byteOffset": 12048,
      "name": "position - Line001_primitive2",
      "byteStride": 12,
      "target": 34962
    },
    {
      "buffer": 0,
      "byteLength": 60,
      "byteOffset": 12112,
      "name": "normal - Line001_primitive2",
      "byteStride": 12,
      "target": 34962
    },
    {
      "buffer": 0,
      "byteLength": 40,
      "byteOffset": 12176,
      "name": "uv - Line001_primitive2",
      "byteStride": 8,
      "target": 34962
    },
    {
      "buffer": 0,
      "byteLength": 36,
      "byteOffset": 12216,
      "name": "Indices - Line001_primitive2",
      "target": 34963
    },
    {
      "buffer": 0,
      "byteLength": 153768,
      "byteOffset": 12256,
      "name": "position - Line001_primitive3",
      "byteStride": 12,
      "target": 34962
    },
    {
      "buffer": 0,
      "byteLength": 153768,
      "byteOffset": 166024,
      "name": "normal - Line001_primitive3",
      "byteStride": 12,
      "target": 34962
    },
    {
      "buffer": 0,
      "byteLength": 102512,
      "byteOffset": 319792,
      "name": "uv - Line001_primitive3",
      "byteStride": 8,
      "target": 34962
    },
    {
      "buffer": 0,
      "byteLength": 83064,
      "byteOffset": 422304,
      "name": "Indices - Line001_primitive3",
      "target": 34963
    },
    {
      "buffer": 0,
      "byteLength": 69156,
      "byteOffset": 505368,
      "name": "position - Line001_primitive4",
      "byteStride": 12,
      "target": 34962
    },
    {
      "buffer": 0,
      "byteLength": 69156,
      "byteOffset": 574528,
      "name": "normal - Line001_primitive4",
      "byteStride": 12,
      "target": 34962
    },
    {
      "buffer": 0,
      "byteLength": 46104,
      "byteOffset": 643688,
      "name": "uv - Line001_primitive4",
      "byteStride": 8,
      "target": 34962
    },
    {
      "buffer": 0,
      "byteLength": 49740,
      "byteOffset": 689792,
      "name": "Indices - Line001_primitive4",
      "target": 34963
    },
    {
      "buffer": 0,
      "byteOffset": 739536,
      "byteLength": 25086
    },
    {
      "buffer": 0,
      "byteOffset": 764624,
      "byteLength": 59268
    },
    {
      "buffer": 0,
      "byteOffset": 823896,
      "byteLength": 11115
    },
    {
      "buffer": 0,
      "byteOffset": 835016,
      "byteLength": 95
    },
    {
      "buffer": 0,
      "byteOffset": 835112,
      "byteLength": 30235
    }
  ],
  "accessors": [
    {
      "name": "position - Line001_primitive0",
      "bufferView": 0,
      "componentType": 5126,
      "count": 245,
      "type": "VEC3",
      "min": [
        -10522.8076171875,
        4203.6689453125,
        -15341.830078125
      ],
      "max": [
        11488.4794921875,
        12143.419921875,
        10778.0390625
      ],
      "byteOffset": 0
    },
    {
      "name": "normal - Line001_primitive0",
      "bufferView": 1,
      "componentType": 5126,
      "count": 245,
      "type": "VEC3",
      "byteOffset": 0
    },
    {
      "name": "uv - Line001_primitive0",
      "bufferView": 2,
      "componentType": 5126,
      "count": 245,
      "type": "VEC2",
      "byteOffset": 0
    },
    {
      "name": "indices - Line001_primitive0",
      "bufferView": 3,
      "componentType": 5125,
      "count": 573,
      "type": "SCALAR",
      "byteOffset": 0
    },
    {
      "name": "position - Line001_primitive1",
      "bufferView": 4,
      "componentType": 5126,
      "count": 46,
      "type": "VEC3",
      "min": [
        -10657.9384765625,
        3858.61328125,
        -15365.5361328125
      ],
      "max": [
        10223.3974609375,
        9023.185546875,
        -8350.283203125
      ],
      "byteOffset": 0
    },
    {
      "name": "normal - Line001_primitive1",
      "bufferView": 5,
      "componentType": 5126,
      "count": 46,
      "type": "VEC3",
      "byteOffset": 0
    },
    {
      "name": "uv - Line001_primitive1",
      "bufferView": 6,
      "componentType": 5126,
      "count": 46,
      "type": "VEC2",
      "byteOffset": 0
    },
    {
      "name": "indices - Line001_primitive1",
      "bufferView": 7,
      "componentType": 5125,
      "count": 108,
      "type": "SCALAR",
      "byteOffset": 0
    },
    {
      "name": "position - Line001_primitive2",
      "bufferView": 8,
      "componentType": 5126,
      "count": 5,
      "type": "VEC3",
      "min": [
        10073.314453125,
        3509.3505859375,
        -6221.8369140625
      ],
      "max": [
        10073.314453125,
        6005.6123046875,
        -4697.841796875
      ],
      "byteOffset": 0
    },
    {
      "name": "normal - Line001_primitive2",
      "bufferView": 9,
      "componentType": 5126,
      "count": 5,
      "type": "VEC3",
      "byteOffset": 0
    },
    {
      "name": "uv - Line001_primitive2",
      "bufferView": 10,
      "componentType": 5126,
      "count": 5,
      "type": "VEC2",
      "byteOffset": 0
    },
    {
      "name": "indices - Line001_primitive2",
      "bufferView": 11,
      "componentType": 5125,
      "count": 9,
      "type": "SCALAR",
      "byteOffset": 0
    },
    {
      "name": "position - Line001_primitive3",
      "bufferView": 12,
      "componentType": 5126,
      "count": 12814,
      "type": "VEC3",
      "min": [
        -10855.61328125,
        -0.00042724609375,
        -15623.6708984375
      ],
      "max": [
        11535.572265625,
        8351.4296875,
        25575.203125
      ],
      "byteOffset": 0
    },
    {
      "name": "normal - Line001_primitive3",
      "bufferView": 13,
      "componentType": 5126,
      "count": 12814,
      "type": "VEC3",
      "byteOffset": 0
    },
    {
      "name": "uv - Line001_primitive3",
      "bufferView": 14,
      "componentType": 5126,
      "count": 12814,
      "type": "VEC2",
      "byteOffset": 0
    },
    {
      "name": "indices - Line001_primitive3",
      "bufferView": 15,
      "componentType": 5125,
      "count": 20766,
      "type": "SCALAR",
      "byteOffset": 0
    },
    {
      "name": "position - Line001_primitive4",
      "bufferView": 16,
      "componentType": 5126,
      "count": 5763,
      "type": "VEC3",
      "min": [
        -10855.6142578125,
        -0.00042724609375,
        -22059.0859375
      ],
      "max": [
        11671.8701171875,
        24864.033203125,
        25611.76953125
      ],
      "byteOffset": 0
    },
    {
      "name": "normal - Line001_primitive4",
      "bufferView": 17,
      "componentType": 5126,
      "count": 5763,
      "type": "VEC3",
      "byteOffset": 0
    },
    {
      "name": "uv - Line001_primitive4",
      "bufferView": 18,
      "componentType": 5126,
      "count": 5763,
      "type": "VEC2",
      "byteOffset": 0
    },
    {
      "name": "indices - Line001_primitive4",
      "bufferView": 19,
      "componentType": 5125,
      "count": 12435,
      "type": "SCALAR",
      "byteOffset": 0
    }
  ],
  "materials": [
    {
      "name": "texture 01",
      "alphaMode": "BLEND",
      "doubleSided": true,
      "pbrMetallicRoughness": {
        "baseColorFactor": [
          1,
          1,
          1,
          1
        ],
        "baseColorTexture": {
          "index": 0,
          "texCoord": 0
        },
        "metallicFactor": 0,
        "roughnessFactor": 0.5527864098548889
      },
      "extensions": {
        "KHR_materials_specular": {
          "specularColorFactor": [
            2,
            2,
            2
          ]
        }
      },
      "emissiveFactor": [
        0,
        0,
        0
      ]
    },
    {
      "name": "texture 04",
      "doubleSided": true,
      "pbrMetallicRoughness": {
        "baseColorFactor": [
          1,
          1,
          1,
          1
        ],
        "baseColorTexture": {
          "index": 1,
          "texCoord": 0
        },
        "metallicFactor": 0,
        "roughnessFactor": 0.5527864098548889
      },
      "extensions": {
        "KHR_materials_specular": {
          "specularColorFactor": [
            2,
            2,
            2
          ]
        }
      },
      "emissiveFactor": [
        0,
        0,
        0
      ],
      "alphaMode": "OPAQUE"
    },
    {
      "name": "texture 03",
      "doubleSided": true,
      "pbrMetallicRoughness": {
        "baseColorFactor": [
          1,
          1,
          1,
          1
        ],
        "baseColorTexture": {
          "index": 2,
          "texCoord": 0
        },
        "metallicFactor": 0,
        "roughnessFactor": 0.5527864098548889
      },
      "extensions": {
        "KHR_materials_specular": {
          "specularColorFactor": [
            2,
            2,
            2
          ]
        }
      },
      "emissiveFactor": [
        0,
        0,
        0
      ],
      "alphaMode": "OPAQUE"
    },
    {
      "name": "PaletteMaterial001",
      "doubleSided": true,
      "pbrMetallicRoughness": {
        "baseColorFactor": [
          1,
          1,
          1,
          1
        ],
        "baseColorTexture": {
          "index": 3,
          "texCoord": 0
        },
        "metallicFactor": 0,
        "roughnessFactor": 0.5527864098548889
      },
      "extensions": {
        "KHR_materials_specular": {
          "specularColorFactor": [
            2,
            2,
            2
          ]
        }
      },
      "emissiveFactor": [
        0,
        0,
        0
      ],
      "alphaMode": "OPAQUE"
    },
    {
      "name": "texture 02",
      "alphaMode": "BLEND",
      "doubleSided": true,
      "pbrMetallicRoughness": {
        "baseColorFactor": [
          1,
          1,
          1,
          1
        ],
        "baseColorTexture": {
          "index": 4,
          "texCoord": 0
        },
        "metallicFactor": 0,
        "roughnessFactor": 0.5527864098548889
      },
      "extensions": {
        "KHR_materials_specular": {
          "specularColorFactor": [
            2,
            2,
            2
          ]
        }
      },
      "emissiveFactor": [
        0,
        0,
        0
      ]
    }
  ],
  "textures": [
    {
      "source": 0,
      "sampler": 0
    },
    {
      "source": 1,
      "sampler": 0
    },
    {
      "source": 2,
      "sampler": 0
    },
    {
      "source": 3,
      "sampler": 1
    },
    {
      "source": 4,
      "sampler": 0
    }
  ],
  "samplers": [
    {
      "magFilter": 9729,
      "minFilter": 9987,
      "wrapS": 10497,
      "wrapT": 10497
    },
    {
      "magFilter": 9728,
      "minFilter": 9728,
      "wrapS": 10497,
      "wrapT": 10497
    }
  ],
  "images": [
    {
      "name": "texture 01 (Base Color) image",
      "bufferView": 20,
      "mimeType": "image/png"
    },
    {
      "name": "texture 04 (Base Color) image",
      "bufferView": 21,
      "mimeType": "image/png"
    },
    {
      "name": "texture 03 (Base Color) image",
      "bufferView": 22,
      "mimeType": "image/png"
    },
    {
      "name": "PaletteMaterial001 (Base Color) image",
      "bufferView": 23,
      "mimeType": "image/png"
    },
    {
      "name": "texture 02 (Base Color) image",
      "bufferView": 24,
      "mimeType": "image/png"
    }
  ]
}
