{
  "asset": {
    "generator": "Babylon.js v7.27.0",
    "version": "2.0"
  },
  "extensionsUsed": [
    "KHR_materials_specular"
  ],
  "extensions": {},
  "buffers": [
    {
      "name": "2024_6_6_77eca25d42954f80a65eef6af1926244",
      "byteLength": 849056,
      "uri": "data:application/octet-stream;base64,"
    }
  ],
  "nodes": [
    {
      "name": "Box001",
      "translation": [
        3.4203715324401855,
        0.2103433907032013,
        0.006940312683582306
      ],
      "scale": [
        0.0010000000474974513,
        0.0010000000474974513,
        0.0010000000474974513
      ],
      "children": [
        1,
        2,
        3,
        4,
        5,
        6,
        7
      ],
      "rotation": [
        0,
        0,
        0,
        1
      ]
    },
    {
      "name": "Box001_primitive0",
      "mesh": 0
    },
    {
      "name": "Box001_primitive1",
      "mesh": 1
    },
    {
      "name": "Box001_primitive2",
      "mesh": 2
    },
    {
      "name": "Box001_primitive3",
      "mesh": 3
    },
    {
      "name": "Box001_primitive4",
      "mesh": 4
    },
    {
      "name": "Box001_primitive5",
      "mesh": 5
    },
    {
      "name": "Box001_primitive6",
      "mesh": 6
    }
  ],
  "meshes": [
    {
      "primitives": [
        {
          "attributes": {
            "POSITION": 0,
            "NORMAL": 1,
            "TEXCOORD_0": 2
          },
          "indices": 3,
          "material": 0,
          "mode": 4
        }
      ]
    },
    {
      "primitives": [
        {
          "attributes": {
            "POSITION": 4,
            "NORMAL": 5,
            "TEXCOORD_0": 6
          },
          "indices": 7,
          "material": 1,
          "mode": 4
        }
      ]
    },
    {
      "primitives": [
        {
          "attributes": {
            "POSITION": 8,
            "NORMAL": 9,
            "TEXCOORD_0": 10
          },
          "indices": 11,
          "material": 2,
          "mode": 4
        }
      ]
    },
    {
      "primitives": [
        {
          "attributes": {
            "POSITION": 12,
            "NORMAL": 13,
            "TEXCOORD_0": 14
          },
          "indices": 15,
          "material": 3,
          "mode": 4
        }
      ]
    },
    {
      "primitives": [
        {
          "attributes": {
            "POSITION": 16,
            "NORMAL": 17,
            "TEXCOORD_0": 18
          },
          "indices": 19,
          "material": 4,
          "mode": 4
        }
      ]
    },
    {
      "primitives": [
        {
          "attributes": {
            "POSITION": 20,
            "NORMAL": 21,
            "TEXCOORD_0": 22
          },
          "indices": 23,
          "material": 5,
          "mode": 4
        }
      ]
    },
    {
      "primitives": [
        {
          "attributes": {
            "POSITION": 24,
            "NORMAL": 25,
            "TEXCOORD_0": 26
          },
          "indices": 27,
          "material": 6,
          "mode": 4
        }
      ]
    }
  ],
  "scenes": [
    {
      "nodes": [
        0
      ]
    }
  ],
  "scene": 0,
  "bufferViews": [
    {
      "buffer": 0,
      "byteLength": 384,
      "name": "position - Box001_primitive0",
      "byteStride": 12,
      "byteOffset": 0,
      "target": 34962
    },
    {
      "buffer": 0,
      "byteLength": 384,
      "byteOffset": 384,
      "name": "normal - Box001_primitive0",
      "byteStride": 12,
      "target": 34962
    },
    {
      "buffer": 0,
      "byteLength": 256,
      "byteOffset": 768,
      "name": "uv - Box001_primitive0",
      "byteStride": 8,
      "target": 34962
    },
    {
      "buffer": 0,
      "byteLength": 264,
      "byteOffset": 1024,
      "name": "Indices - Box001_primitive0",
      "target": 34963
    },
    {
      "buffer": 0,
      "byteLength": 6468,
      "byteOffset": 1288,
      "name": "position - Box001_primitive1",
      "byteStride": 12,
      "target": 34962
    },
    {
      "buffer": 0,
      "byteLength": 6468,
      "byteOffset": 7760,
      "name": "normal - Box001_primitive1",
      "byteStride": 12,
      "target": 34962
    },
    {
      "buffer": 0,
      "byteLength": 4312,
      "byteOffset": 14232,
      "name": "uv - Box001_primitive1",
      "byteStride": 8,
      "target": 34962
    },
    {
      "buffer": 0,
      "byteLength": 4428,
      "byteOffset": 18544,
      "name": "Indices - Box001_primitive1",
      "target": 34963
    },
    {
      "buffer": 0,
      "byteLength": 12012,
      "byteOffset": 22976,
      "name": "position - Box001_primitive2",
      "byteStride": 12,
      "target": 34962
    },
    {
      "buffer": 0,
      "byteLength": 12012,
      "byteOffset": 34992,
      "name": "normal - Box001_primitive2",
      "byteStride": 12,
      "target": 34962
    },
    {
      "buffer": 0,
      "byteLength": 8008,
      "byteOffset": 47008,
      "name": "uv - Box001_primitive2",
      "byteStride": 8,
      "target": 34962
    },
    {
      "buffer": 0,
      "byteLength": 8028,
      "byteOffset": 55016,
      "name": "Indices - Box001_primitive2",
      "target": 34963
    },
    {
      "buffer": 0,
      "byteLength": 3588,
      "byteOffset": 63048,
      "name": "position - Box001_primitive3",
      "byteStride": 12,
      "target": 34962
    },
    {
      "buffer": 0,
      "byteLength": 3588,
      "byteOffset": 66640,
      "name": "normal - Box001_primitive3",
      "byteStride": 12,
      "target": 34962
    },
    {
      "buffer": 0,
      "byteLength": 2392,
      "byteOffset": 70232,
      "name": "uv - Box001_primitive3",
      "byteStride": 8,
      "target": 34962
    },
    {
      "buffer": 0,
      "byteLength": 2388,
      "byteOffset": 72624,
      "name": "Indices - Box001_primitive3",
      "target": 34963
    },
    {
      "buffer": 0,
      "byteLength": 14340,
      "byteOffset": 75016,
      "name": "position - Box001_primitive4",
      "byteStride": 12,
      "target": 34962
    },
    {
      "buffer": 0,
      "byteLength": 14340,
      "byteOffset": 89360,
      "name": "normal - Box001_primitive4",
      "byteStride": 12,
      "target": 34962
    },
    {
      "buffer": 0,
      "byteLength": 9560,
      "byteOffset": 103704,
      "name": "uv - Box001_primitive4",
      "byteStride": 8,
      "target": 34962
    },
    {
      "buffer": 0,
      "byteLength": 9684,
      "byteOffset": 113264,
      "name": "Indices - Box001_primitive4",
      "target": 34963
    },
    {
      "buffer": 0,
      "byteLength": 288,
      "byteOffset": 122952,
      "name": "position - Box001_primitive5",
      "byteStride": 12,
      "target": 34962
    },
    {
      "buffer": 0,
      "byteLength": 288,
      "byteOffset": 123240,
      "name": "normal - Box001_primitive5",
      "byteStride": 12,
      "target": 34962
    },
    {
      "buffer": 0,
      "byteLength": 192,
      "byteOffset": 123528,
      "name": "uv - Box001_primitive5",
      "byteStride": 8,
      "target": 34962
    },
    {
      "buffer": 0,
      "byteLength": 144,
      "byteOffset": 123720,
      "name": "Indices - Box001_primitive5",
      "target": 34963
    },
    {
      "buffer": 0,
      "byteLength": 128520,
      "byteOffset": 123864,
      "name": "position - Box001_primitive6",
      "byteStride": 12,
      "target": 34962
    },
    {
      "buffer": 0,
      "byteLength": 128520,
      "byteOffset": 252384,
      "name": "normal - Box001_primitive6",
      "byteStride": 12,
      "target": 34962
    },
    {
      "buffer": 0,
      "byteLength": 85680,
      "byteOffset": 380904,
      "name": "uv - Box001_primitive6",
      "byteStride": 8,
      "target": 34962
    },
    {
      "buffer": 0,
      "byteLength": 112608,
      "byteOffset": 466584,
      "name": "Indices - Box001_primitive6",
      "target": 34963
    },
    {
      "buffer": 0,
      "byteOffset": 579192,
      "byteLength": 8956
    },
    {
      "buffer": 0,
      "byteOffset": 588152,
      "byteLength": 11038
    },
    {
      "buffer": 0,
      "byteOffset": 599192,
      "byteLength": 14464
    },
    {
      "buffer": 0,
      "byteOffset": 613656,
      "byteLength": 12348
    },
    {
      "buffer": 0,
      "byteOffset": 626008,
      "byteLength": 2365
    },
    {
      "buffer": 0,
      "byteOffset": 628376,
      "byteLength": 218300
    },
    {
      "buffer": 0,
      "byteOffset": 846680,
      "byteLength": 2375
    }
  ],
  "accessors": [
    {
      "name": "position - Box001_primitive0",
      "bufferView": 0,
      "componentType": 5126,
      "count": 32,
      "type": "VEC3",
      "min": [
        -5388.3173828125,
        0,
        8047.953125
      ],
      "max": [
        -2848.3173828125,
        10058.400390625,
        8382
      ],
      "byteOffset": 0
    },
    {
      "name": "normal - Box001_primitive0",
      "bufferView": 1,
      "componentType": 5126,
      "count": 32,
      "type": "VEC3",
      "byteOffset": 0
    },
    {
      "name": "uv - Box001_primitive0",
      "bufferView": 2,
      "componentType": 5126,
      "count": 32,
      "type": "VEC2",
      "byteOffset": 0
    },
    {
      "name": "indices - Box001_primitive0",
      "bufferView": 3,
      "componentType": 5125,
      "count": 66,
      "type": "SCALAR",
      "byteOffset": 0
    },
    {
      "name": "position - Box001_primitive1",
      "bufferView": 4,
      "componentType": 5126,
      "count": 539,
      "type": "VEC3",
      "min": [
        -2848.3173828125,
        0,
        8127.654296875
      ],
      "max": [
        2231.682861328125,
        3352.800048828125,
        8770.6005859375
      ],
      "byteOffset": 0
    },
    {
      "name": "normal - Box001_primitive1",
      "bufferView": 5,
      "componentType": 5126,
      "count": 539,
      "type": "VEC3",
      "byteOffset": 0
    },
    {
      "name": "uv - Box001_primitive1",
      "bufferView": 6,
      "componentType": 5126,
      "count": 539,
      "type": "VEC2",
      "byteOffset": 0
    },
    {
      "name": "indices - Box001_primitive1",
      "bufferView": 7,
      "componentType": 5125,
      "count": 1107,
      "type": "SCALAR",
      "byteOffset": 0
    },
    {
      "name": "position - Box001_primitive2",
      "bufferView": 8,
      "componentType": 5126,
      "count": 1001,
      "type": "VEC3",
      "min": [
        -2848.3173828125,
        3352.7998046875,
        8382
      ],
      "max": [
        2231.682861328125,
        6705.60009765625,
        9010.125
      ],
      "byteOffset": 0
    },
    {
      "name": "normal - Box001_primitive2",
      "bufferView": 9,
      "componentType": 5126,
      "count": 1001,
      "type": "VEC3",
      "byteOffset": 0
    },
    {
      "name": "uv - Box001_primitive2",
      "bufferView": 10,
      "componentType": 5126,
      "count": 1001,
      "type": "VEC2",
      "byteOffset": 0
    },
    {
      "name": "indices - Box001_primitive2",
      "bufferView": 11,
      "componentType": 5125,
      "count": 2007,
      "type": "SCALAR",
      "byteOffset": 0
    },
    {
      "name": "position - Box001_primitive3",
      "bufferView": 12,
      "componentType": 5126,
      "count": 299,
      "type": "VEC3",
      "min": [
        -5388.3173828125,
        0,
        -7992.814453125
      ],
      "max": [
        4075.7080078125,
        11035.505859375,
        8382
      ],
      "byteOffset": 0
    },
    {
      "name": "normal - Box001_primitive3",
      "bufferView": 13,
      "componentType": 5126,
      "count": 299,
      "type": "VEC3",
      "byteOffset": 0
    },
    {
      "name": "uv - Box001_primitive3",
      "bufferView": 14,
      "componentType": 5126,
      "count": 299,
      "type": "VEC2",
      "byteOffset": 0
    },
    {
      "name": "indices - Box001_primitive3",
      "bufferView": 15,
      "componentType": 5125,
      "count": 597,
      "type": "SCALAR",
      "byteOffset": 0
    },
    {
      "name": "position - Box001_primitive4",
      "bufferView": 16,
      "componentType": 5126,
      "count": 1195,
      "type": "VEC3",
      "min": [
        -2725.169189453125,
        336.36083984375,
        -2907.493896484375
      ],
      "max": [
        3339.7919921875,
        10858.3291015625,
        9010.125
      ],
      "byteOffset": 0
    },
    {
      "name": "normal - Box001_primitive4",
      "bufferView": 17,
      "componentType": 5126,
      "count": 1195,
      "type": "VEC3",
      "byteOffset": 0
    },
    {
      "name": "uv - Box001_primitive4",
      "bufferView": 18,
      "componentType": 5126,
      "count": 1195,
      "type": "VEC2",
      "byteOffset": 0
    },
    {
      "name": "indices - Box001_primitive4",
      "bufferView": 19,
      "componentType": 5125,
      "count": 2421,
      "type": "SCALAR",
      "byteOffset": 0
    },
    {
      "name": "position - Box001_primitive5",
      "bufferView": 20,
      "componentType": 5126,
      "count": 24,
      "type": "VEC3",
      "min": [
        -2521.27685546875,
        0,
        8127.654296875
      ],
      "max": [
        -1189.9052734375,
        249.528564453125,
        8489.8935546875
      ],
      "byteOffset": 0
    },
    {
      "name": "normal - Box001_primitive5",
      "bufferView": 21,
      "componentType": 5126,
      "count": 24,
      "type": "VEC3",
      "byteOffset": 0
    },
    {
      "name": "uv - Box001_primitive5",
      "bufferView": 22,
      "componentType": 5126,
      "count": 24,
      "type": "VEC2",
      "byteOffset": 0
    },
    {
      "name": "indices - Box001_primitive5",
      "bufferView": 23,
      "componentType": 5125,
      "count": 36,
      "type": "SCALAR",
      "byteOffset": 0
    },
    {
      "name": "position - Box001_primitive6",
      "bufferView": 24,
      "componentType": 5126,
      "count": 10710,
      "type": "VEC3",
      "min": [
        -2323.1484375,
        9274.318359375,
        216.24757385253906
      ],
      "max": [
        3039.21240234375,
        10038.4658203125,
        8305.4072265625
      ],
      "byteOffset": 0
    },
    {
      "name": "normal - Box001_primitive6",
      "bufferView": 25,
      "componentType": 5126,
      "count": 10710,
      "type": "VEC3",
      "byteOffset": 0
    },
    {
      "name": "uv - Box001_primitive6",
      "bufferView": 26,
      "componentType": 5126,
      "count": 10710,
      "type": "VEC2",
      "byteOffset": 0
    },
    {
      "name": "indices - Box001_primitive6",
      "bufferView": 27,
      "componentType": 5125,
      "count": 28152,
      "type": "SCALAR",
      "byteOffset": 0
    }
  ],
  "materials": [
    {
      "name": "texture 01",
      "doubleSided": true,
      "pbrMetallicRoughness": {
        "baseColorFactor": [
          1,
          1,
          1,
          1
        ],
        "baseColorTexture": {
          "index": 0,
          "texCoord": 0
        },
        "metallicFactor": 0,
        "roughnessFactor": 0.5527864098548889
      },
      "extensions": {
        "KHR_materials_specular": {
          "specularColorFactor": [
            2,
            2,
            2
          ]
        }
      },
      "emissiveFactor": [
        0,
        0,
        0
      ],
      "alphaMode": "OPAQUE"
    },
    {
      "name": "texture 02",
      "doubleSided": true,
      "pbrMetallicRoughness": {
        "baseColorFactor": [
          1,
          1,
          1,
          1
        ],
        "baseColorTexture": {
          "index": 1,
          "texCoord": 0
        },
        "metallicFactor": 0,
        "roughnessFactor": 0.5527864098548889
      },
      "extensions": {
        "KHR_materials_specular": {
          "specularColorFactor": [
            2,
            2,
            2
          ]
        }
      },
      "emissiveFactor": [
        0,
        0,
        0
      ],
      "alphaMode": "OPAQUE"
    },
    {
      "name": "texture 03",
      "doubleSided": true,
      "pbrMetallicRoughness": {
        "baseColorFactor": [
          1,
          1,
          1,
          1
        ],
        "baseColorTexture": {
          "index": 2,
          "texCoord": 0
        },
        "metallicFactor": 0,
        "roughnessFactor": 0.5527864098548889
      },
      "extensions": {
        "KHR_materials_specular": {
          "specularColorFactor": [
            2,
            2,
            2
          ]
        }
      },
      "emissiveFactor": [
        0,
        0,
        0
      ],
      "alphaMode": "OPAQUE"
    },
    {
      "name": "texture 04",
      "doubleSided": true,
      "pbrMetallicRoughness": {
        "baseColorFactor": [
          1,
          1,
          1,
          1
        ],
        "baseColorTexture": {
          "index": 3,
          "texCoord": 0
        },
        "metallicFactor": 0,
        "roughnessFactor": 0.5527864098548889
      },
      "extensions": {
        "KHR_materials_specular": {
          "specularColorFactor": [
            2,
            2,
            2
          ]
        }
      },
      "emissiveFactor": [
        0,
        0,
        0
      ],
      "alphaMode": "OPAQUE"
    },
    {
      "name": "texture 05",
      "doubleSided": true,
      "pbrMetallicRoughness": {
        "baseColorFactor": [
          1,
          1,
          1,
          1
        ],
        "baseColorTexture": {
          "index": 4,
          "texCoord": 0
        },
        "metallicFactor": 0,
        "roughnessFactor": 0.5527864098548889
      },
      "extensions": {
        "KHR_materials_specular": {
          "specularColorFactor": [
            2,
            2,
            2
          ]
        }
      },
      "emissiveFactor": [
        0,
        0,
        0
      ],
      "alphaMode": "OPAQUE"
    },
    {
      "name": "texture 06",
      "doubleSided": true,
      "pbrMetallicRoughness": {
        "baseColorFactor": [
          1,
          1,
          1,
          1
        ],
        "baseColorTexture": {
          "index": 5,
          "texCoord": 0
        },
        "metallicFactor": 0,
        "roughnessFactor": 0.5527864098548889
      },
      "extensions": {
        "KHR_materials_specular": {
          "specularColorFactor": [
            2,
            2,
            2
          ]
        }
      },
      "emissiveFactor": [
        0,
        0,
        0
      ],
      "alphaMode": "OPAQUE"
    },
    {
      "name": "texture 07",
      "doubleSided": true,
      "pbrMetallicRoughness": {
        "baseColorFactor": [
          1,
          1,
          1,
          1
        ],
        "baseColorTexture": {
          "index": 6,
          "texCoord": 0
        },
        "metallicFactor": 0,
        "roughnessFactor": 0.5527864098548889
      },
      "extensions": {
        "KHR_materials_specular": {
          "specularColorFactor": [
            2,
            2,
            2
          ]
        }
      },
      "emissiveFactor": [
        0,
        0,
        0
      ],
      "alphaMode": "OPAQUE"
    }
  ],
  "textures": [
    {
      "source": 0,
      "sampler": 0
    },
    {
      "source": 1,
      "sampler": 0
    },
    {
      "source": 2,
      "sampler": 0
    },
    {
      "source": 3,
      "sampler": 0
    },
    {
      "source": 4,
      "sampler": 0
    },
    {
      "source": 5,
      "sampler": 0
    },
    {
      "source": 6,
      "sampler": 0
    }
  ],
  "samplers": [
    {
      "magFilter": 9729,
      "minFilter": 9987,
      "wrapS": 10497,
      "wrapT": 10497
    }
  ],
  "images": [
    {
      "name": "texture 01 (Base Color) image",
      "bufferView": 28,
      "mimeType": "image/jpeg"
    },
    {
      "name": "texture 02 (Base Color) image",
      "bufferView": 29,
      "mimeType": "image/jpeg"
    },
    {
      "name": "texture 03 (Base Color) image",
      "bufferView": 30,
      "mimeType": "image/jpeg"
    },
    {
      "name": "texture 04 (Base Color) image",
      "bufferView": 31,
      "mimeType": "image/jpeg"
    },
    {
      "name": "texture 05 (Base Color) image",
      "bufferView": 32,
      "mimeType": "image/jpeg"
    },
    {
      "name": "texture 06 (Base Color) image",
      "bufferView": 33,
      "mimeType": "image/jpeg"
    },
    {
      "name": "texture 07 (Base Color) image",
      "bufferView": 34,
      "mimeType": "image/jpeg"
    }
  ]
}
