{
  "asset": {
    "generator": "Babylon.js v7.27.0",
    "version": "2.0"
  },
  "extensionsUsed": [
    "KHR_materials_ior",
    "KHR_materials_specular"
  ],
  "extensions": {},
  "buffers": [
    {
      "name": "2024_8_27_b46155bf929f43a7aa8b4d5ebc39b12a",
      "byteLength": 2244560,
      "uri": "data:application/octet-stream;base64,"
    }
  ],
  "nodes": [
    {
      "name": "instance_0",
      "translation": [
        -25.160470130501153,
        -0.03210811425983251,
        -3.4289565503572703
      ],
      "scale": [
        0.08312149390856183,
        0.08312149390856183,
        0.08312149390856183
      ],
      "mesh": 0,
      "rotation": [
        0,
        0,
        0,
        1
      ]
    },
    {
      "name": "instance_0.126",
      "translation": [
        -25.160470130501153,
        -0.03210811425983251,
        -3.4289565503572703
      ],
      "scale": [
        0.08312149390856183,
        0.08312149390856183,
        0.08312149390856183
      ],
      "mesh": 1,
      "rotation": [
        0,
        0,
        0,
        1
      ]
    },
    {
      "name": "instance_0.133",
      "translation": [
        -25.160470130501153,
        -0.03210811425983251,
        -3.4289565503572703
      ],
      "scale": [
        0.08312149390856183,
        0.08312149390856183,
        0.08312149390856183
      ],
      "mesh": 2,
      "rotation": [
        0,
        0,
        0,
        1
      ]
    },
    {
      "name": "instance_0.135",
      "translation": [
        -25.160470130501153,
        -0.03210811425983251,
        -3.4289565503572703
      ],
      "scale": [
        0.08312149390856183,
        0.08312149390856183,
        0.08312149390856183
      ],
      "mesh": 3,
      "rotation": [
        0,
        0,
        0,
        1
      ]
    },
    {
      "name": "instance_0.136",
      "translation": [
        -25.160470130501153,
        -0.03210811425983251,
        -3.4289565503572703
      ],
      "scale": [
        0.08312149390856183,
        0.08312149390856183,
        0.08312149390856183
      ],
      "mesh": 4,
      "rotation": [
        0,
        0,
        0,
        1
      ]
    },
    {
      "name": "instance_0.138",
      "translation": [
        -25.160470130501153,
        -0.03210811425983251,
        -3.4289565503572703
      ],
      "scale": [
        0.08312149390856183,
        0.08312149390856183,
        0.08312149390856183
      ],
      "mesh": 5,
      "rotation": [
        0,
        0,
        0,
        1
      ]
    },
    {
      "name": "instance_0.140",
      "translation": [
        -25.160470130501153,
        -0.03210811425983251,
        -3.4289565503572703
      ],
      "scale": [
        0.08312149390856183,
        0.08312149390856183,
        0.08312149390856183
      ],
      "mesh": 6,
      "rotation": [
        0,
        0,
        0,
        1
      ]
    }
  ],
  "meshes": [
    {
      "primitives": [
        {
          "attributes": {
            "POSITION": 0,
            "NORMAL": 1,
            "TEXCOORD_0": 2
          },
          "indices": 3,
          "material": 0,
          "mode": 4
        }
      ]
    },
    {
      "primitives": [
        {
          "attributes": {
            "POSITION": 4,
            "NORMAL": 5,
            "TEXCOORD_0": 6
          },
          "indices": 7,
          "material": 1,
          "mode": 4
        }
      ]
    },
    {
      "primitives": [
        {
          "attributes": {
            "POSITION": 8,
            "NORMAL": 9,
            "TEXCOORD_0": 10
          },
          "indices": 11,
          "material": 2,
          "mode": 4
        }
      ]
    },
    {
      "primitives": [
        {
          "attributes": {
            "POSITION": 12,
            "NORMAL": 13,
            "TEXCOORD_0": 14
          },
          "indices": 15,
          "material": 6,
          "mode": 4
        }
      ]
    },
    {
      "primitives": [
        {
          "attributes": {
            "POSITION": 16,
            "NORMAL": 17,
            "TEXCOORD_0": 18
          },
          "indices": 19,
          "material": 3,
          "mode": 4
        }
      ]
    },
    {
      "primitives": [
        {
          "attributes": {
            "POSITION": 20,
            "NORMAL": 21,
            "TEXCOORD_0": 22
          },
          "indices": 23,
          "material": 4,
          "mode": 4
        }
      ]
    },
    {
      "primitives": [
        {
          "attributes": {
            "POSITION": 24,
            "NORMAL": 25,
            "TEXCOORD_0": 26
          },
          "indices": 27,
          "material": 5,
          "mode": 4
        }
      ]
    }
  ],
  "scenes": [
    {
      "nodes": [
        0,
        1,
        2,
        3,
        4,
        5,
        6
      ]
    }
  ],
  "scene": 0,
  "bufferViews": [
    {
      "buffer": 0,
      "byteLength": 254052,
      "name": "position - instance_0",
      "byteStride": 12,
      "byteOffset": 0,
      "target": 34962
    },
    {
      "buffer": 0,
      "byteLength": 254052,
      "byteOffset": 254056,
      "name": "normal - instance_0",
      "byteStride": 12,
      "target": 34962
    },
    {
      "buffer": 0,
      "byteLength": 169368,
      "byteOffset": 508112,
      "name": "uv - instance_0",
      "byteStride": 8,
      "target": 34962
    },
    {
      "buffer": 0,
      "byteLength": 127356,
      "byteOffset": 677480,
      "name": "Indices - instance_0",
      "target": 34963
    },
    {
      "buffer": 0,
      "byteLength": 4176,
      "byteOffset": 804840,
      "name": "position - instance_0.126",
      "byteStride": 12,
      "target": 34962
    },
    {
      "buffer": 0,
      "byteLength": 4176,
      "byteOffset": 809016,
      "name": "normal - instance_0.126",
      "byteStride": 12,
      "target": 34962
    },
    {
      "buffer": 0,
      "byteLength": 2784,
      "byteOffset": 813192,
      "name": "uv - instance_0.126",
      "byteStride": 8,
      "target": 34962
    },
    {
      "buffer": 0,
      "byteLength": 2232,
      "byteOffset": 815976,
      "name": "Indices - instance_0.126",
      "target": 34963
    },
    {
      "buffer": 0,
      "byteLength": 144,
      "byteOffset": 818208,
      "name": "position - instance_0.133",
      "byteStride": 12,
      "target": 34962
    },
    {
      "buffer": 0,
      "byteLength": 144,
      "byteOffset": 818352,
      "name": "normal - instance_0.133",
      "byteStride": 12,
      "target": 34962
    },
    {
      "buffer": 0,
      "byteLength": 96,
      "byteOffset": 818496,
      "name": "uv - instance_0.133",
      "byteStride": 8,
      "target": 34962
    },
    {
      "buffer": 0,
      "byteLength": 72,
      "byteOffset": 818592,
      "name": "Indices - instance_0.133",
      "target": 34963
    },
    {
      "buffer": 0,
      "byteLength": 48,
      "byteOffset": 818664,
      "name": "position - instance_0.135",
      "byteStride": 12,
      "target": 34962
    },
    {
      "buffer": 0,
      "byteLength": 48,
      "byteOffset": 818712,
      "name": "normal - instance_0.135",
      "byteStride": 12,
      "target": 34962
    },
    {
      "buffer": 0,
      "byteLength": 32,
      "byteOffset": 818760,
      "name": "uv - instance_0.135",
      "byteStride": 8,
      "target": 34962
    },
    {
      "buffer": 0,
      "byteLength": 24,
      "byteOffset": 818792,
      "name": "Indices - instance_0.135",
      "target": 34963
    },
    {
      "buffer": 0,
      "byteLength": 96,
      "byteOffset": 818816,
      "name": "position - instance_0.136",
      "byteStride": 12,
      "target": 34962
    },
    {
      "buffer": 0,
      "byteLength": 96,
      "byteOffset": 818912,
      "name": "normal - instance_0.136",
      "byteStride": 12,
      "target": 34962
    },
    {
      "buffer": 0,
      "byteLength": 64,
      "byteOffset": 819008,
      "name": "uv - instance_0.136",
      "byteStride": 8,
      "target": 34962
    },
    {
      "buffer": 0,
      "byteLength": 48,
      "byteOffset": 819072,
      "name": "Indices - instance_0.136",
      "target": 34963
    },
    {
      "buffer": 0,
      "byteLength": 96,
      "byteOffset": 819120,
      "name": "position - instance_0.138",
      "byteStride": 12,
      "target": 34962
    },
    {
      "buffer": 0,
      "byteLength": 96,
      "byteOffset": 819216,
      "name": "normal - instance_0.138",
      "byteStride": 12,
      "target": 34962
    },
    {
      "buffer": 0,
      "byteLength": 64,
      "byteOffset": 819312,
      "name": "uv - instance_0.138",
      "byteStride": 8,
      "target": 34962
    },
    {
      "buffer": 0,
      "byteLength": 48,
      "byteOffset": 819376,
      "name": "Indices - instance_0.138",
      "target": 34963
    },
    {
      "buffer": 0,
      "byteLength": 37332,
      "byteOffset": 819424,
      "name": "position - instance_0.140",
      "byteStride": 12,
      "target": 34962
    },
    {
      "buffer": 0,
      "byteLength": 37332,
      "byteOffset": 856760,
      "name": "normal - instance_0.140",
      "byteStride": 12,
      "target": 34962
    },
    {
      "buffer": 0,
      "byteLength": 24888,
      "byteOffset": 894096,
      "name": "uv - instance_0.140",
      "byteStride": 8,
      "target": 34962
    },
    {
      "buffer": 0,
      "byteLength": 31476,
      "byteOffset": 918984,
      "name": "Indices - instance_0.140",
      "target": 34963
    },
    {
      "buffer": 0,
      "byteOffset": 950464,
      "byteLength": 177469
    },
    {
      "buffer": 0,
      "byteOffset": 1127936,
      "byteLength": 238039
    },
    {
      "buffer": 0,
      "byteOffset": 1365976,
      "byteLength": 215867
    },
    {
      "buffer": 0,
      "byteOffset": 1581848,
      "byteLength": 233782
    },
    {
      "buffer": 0,
      "byteOffset": 1815632,
      "byteLength": 74742
    },
    {
      "buffer": 0,
      "byteOffset": 1890376,
      "byteLength": 128116
    },
    {
      "buffer": 0,
      "byteOffset": 2018496,
      "byteLength": 226062
    }
  ],
  "accessors": [
    {
      "name": "position - instance_0",
      "bufferView": 0,
      "componentType": 5126,
      "count": 21171,
      "type": "VEC3",
      "min": [
        272.8348083496094,
        0.5562590956687927,
        -58.187599182128906
      ],
      "max": [
        367.8149719238281,
        45.98658752441406,
        60.42356872558594
      ],
      "byteOffset": 0
    },
    {
      "name": "normal - instance_0",
      "bufferView": 1,
      "componentType": 5126,
      "count": 21171,
      "type": "VEC3",
      "byteOffset": 0
    },
    {
      "name": "uv - instance_0",
      "bufferView": 2,
      "componentType": 5126,
      "count": 21171,
      "type": "VEC2",
      "byteOffset": 0
    },
    {
      "name": "indices - instance_0",
      "bufferView": 3,
      "componentType": 5125,
      "count": 31839,
      "type": "SCALAR",
      "byteOffset": 0
    },
    {
      "name": "position - instance_0.126",
      "bufferView": 4,
      "componentType": 5126,
      "count": 348,
      "type": "VEC3",
      "min": [
        278.1838073730469,
        0.5562590956687927,
        -58.187599182128906
      ],
      "max": [
        373.00469970703125,
        39.246246337890625,
        60.42356872558594
      ],
      "byteOffset": 0
    },
    {
      "name": "normal - instance_0.126",
      "bufferView": 5,
      "componentType": 5126,
      "count": 348,
      "type": "VEC3",
      "byteOffset": 0
    },
    {
      "name": "uv - instance_0.126",
      "bufferView": 6,
      "componentType": 5126,
      "count": 348,
      "type": "VEC2",
      "byteOffset": 0
    },
    {
      "name": "indices - instance_0.126",
      "bufferView": 7,
      "componentType": 5125,
      "count": 558,
      "type": "SCALAR",
      "byteOffset": 0
    },
    {
      "name": "position - instance_0.133",
      "bufferView": 8,
      "componentType": 5126,
      "count": 12,
      "type": "VEC3",
      "min": [
        340.1654968261719,
        0.5562590956687927,
        -46.31822967529297
      ],
      "max": [
        364.9356994628906,
        21.643447875976562,
        15.252151489257812
      ],
      "byteOffset": 0
    },
    {
      "name": "normal - instance_0.133",
      "bufferView": 9,
      "componentType": 5126,
      "count": 12,
      "type": "VEC3",
      "byteOffset": 0
    },
    {
      "name": "uv - instance_0.133",
      "bufferView": 10,
      "componentType": 5126,
      "count": 12,
      "type": "VEC2",
      "byteOffset": 0
    },
    {
      "name": "indices - instance_0.133",
      "bufferView": 11,
      "componentType": 5125,
      "count": 18,
      "type": "SCALAR",
      "byteOffset": 0
    },
    {
      "name": "position - instance_0.135",
      "bufferView": 12,
      "componentType": 5126,
      "count": 4,
      "type": "VEC3",
      "min": [
        321.9544982910156,
        7.721932888031006,
        -47.16972732543945
      ],
      "max": [
        332.3465881347656,
        27.282320022583008,
        -46.68379211425781
      ],
      "byteOffset": 0
    },
    {
      "name": "normal - instance_0.135",
      "bufferView": 13,
      "componentType": 5126,
      "count": 4,
      "type": "VEC3",
      "byteOffset": 0
    },
    {
      "name": "uv - instance_0.135",
      "bufferView": 14,
      "componentType": 5126,
      "count": 4,
      "type": "VEC2",
      "byteOffset": 0
    },
    {
      "name": "indices - instance_0.135",
      "bufferView": 15,
      "componentType": 5125,
      "count": 6,
      "type": "SCALAR",
      "byteOffset": 0
    },
    {
      "name": "position - instance_0.136",
      "bufferView": 16,
      "componentType": 5126,
      "count": 8,
      "type": "VEC3",
      "min": [
        362.7872009277344,
        6.572439670562744,
        -30.437509536743164
      ],
      "max": [
        366.3672790527344,
        21.64052391052246,
        46.132102966308594
      ],
      "byteOffset": 0
    },
    {
      "name": "normal - instance_0.136",
      "bufferView": 17,
      "componentType": 5126,
      "count": 8,
      "type": "VEC3",
      "byteOffset": 0
    },
    {
      "name": "uv - instance_0.136",
      "bufferView": 18,
      "componentType": 5126,
      "count": 8,
      "type": "VEC2",
      "byteOffset": 0
    },
    {
      "name": "indices - instance_0.136",
      "bufferView": 19,
      "componentType": 5125,
      "count": 12,
      "type": "SCALAR",
      "byteOffset": 0
    },
    {
      "name": "position - instance_0.138",
      "bufferView": 20,
      "componentType": 5126,
      "count": 8,
      "type": "VEC3",
      "min": [
        342.403076171875,
        23.35386848449707,
        -46.97041702270508
      ],
      "max": [
        365.65948486328125,
        30.501792907714844,
        15.286067962646484
      ],
      "byteOffset": 0
    },
    {
      "name": "normal - instance_0.138",
      "bufferView": 21,
      "componentType": 5126,
      "count": 8,
      "type": "VEC3",
      "byteOffset": 0
    },
    {
      "name": "uv - instance_0.138",
      "bufferView": 22,
      "componentType": 5126,
      "count": 8,
      "type": "VEC2",
      "byteOffset": 0
    },
    {
      "name": "indices - instance_0.138",
      "bufferView": 23,
      "componentType": 5125,
      "count": 12,
      "type": "SCALAR",
      "byteOffset": 0
    },
    {
      "name": "position - instance_0.140",
      "bufferView": 24,
      "componentType": 5126,
      "count": 3111,
      "type": "VEC3",
      "min": [
        273.5328063964844,
        42.415130615234375,
        -57.255889892578125
      ],
      "max": [
        367.5135498046875,
        45.98075485229492,
        60.04460906982422
      ],
      "byteOffset": 0
    },
    {
      "name": "normal - instance_0.140",
      "bufferView": 25,
      "componentType": 5126,
      "count": 3111,
      "type": "VEC3",
      "byteOffset": 0
    },
    {
      "name": "uv - instance_0.140",
      "bufferView": 26,
      "componentType": 5126,
      "count": 3111,
      "type": "VEC2",
      "byteOffset": 0
    },
    {
      "name": "indices - instance_0.140",
      "bufferView": 27,
      "componentType": 5125,
      "count": 7869,
      "type": "SCALAR",
      "byteOffset": 0
    }
  ],
  "materials": [
    {
      "name": "__auto_",
      "doubleSided": true,
      "pbrMetallicRoughness": {
        "baseColorFactor": [
          1,
          1,
          1,
          1
        ],
        "baseColorTexture": {
          "index": 0,
          "texCoord": 0
        },
        "metallicFactor": 0,
        "roughnessFactor": 0.5
      },
      "extensions": {
        "KHR_materials_ior": {
          "ior": 1.4500000476837158
        },
        "KHR_materials_specular": {
          "specularColorFactor": [
            0,
            0,
            0
          ]
        }
      },
      "emissiveFactor": [
        0,
        0,
        0
      ],
      "alphaMode": "OPAQUE"
    },
    {
      "name": "__auto_1",
      "doubleSided": true,
      "pbrMetallicRoughness": {
        "baseColorFactor": [
          1,
          1,
          1,
          1
        ],
        "baseColorTexture": {
          "index": 1,
          "texCoord": 0
        },
        "metallicFactor": 0,
        "roughnessFactor": 0.5
      },
      "extensions": {
        "KHR_materials_ior": {
          "ior": 1.4500000476837158
        },
        "KHR_materials_specular": {
          "specularColorFactor": [
            0,
            0,
            0
          ]
        }
      },
      "emissiveFactor": [
        0,
        0,
        0
      ],
      "alphaMode": "OPAQUE"
    },
    {
      "name": "__auto_2",
      "doubleSided": true,
      "pbrMetallicRoughness": {
        "baseColorFactor": [
          1,
          1,
          1,
          1
        ],
        "baseColorTexture": {
          "index": 2,
          "texCoord": 0
        },
        "metallicFactor": 0,
        "roughnessFactor": 0.5
      },
      "extensions": {
        "KHR_materials_ior": {
          "ior": 1.4500000476837158
        },
        "KHR_materials_specular": {
          "specularColorFactor": [
            0,
            0,
            0
          ]
        }
      },
      "emissiveFactor": [
        0,
        0,
        0
      ],
      "alphaMode": "OPAQUE"
    },
    {
      "name": "__auto_4",
      "doubleSided": true,
      "pbrMetallicRoughness": {
        "baseColorFactor": [
          1,
          1,
          1,
          1
        ],
        "baseColorTexture": {
          "index": 3,
          "texCoord": 0
        },
        "metallicFactor": 0,
        "roughnessFactor": 0.5
      },
      "extensions": {
        "KHR_materials_ior": {
          "ior": 1.4500000476837158
        },
        "KHR_materials_specular": {
          "specularColorFactor": [
            0,
            0,
            0
          ]
        }
      },
      "emissiveFactor": [
        0,
        0,
        0
      ],
      "alphaMode": "OPAQUE"
    },
    {
      "name": "__auto_5",
      "doubleSided": true,
      "pbrMetallicRoughness": {
        "baseColorFactor": [
          1,
          1,
          1,
          1
        ],
        "baseColorTexture": {
          "index": 4,
          "texCoord": 0
        },
        "metallicFactor": 0,
        "roughnessFactor": 0.5
      },
      "extensions": {
        "KHR_materials_ior": {
          "ior": 1.4500000476837158
        },
        "KHR_materials_specular": {
          "specularColorFactor": [
            0,
            0,
            0
          ]
        }
      },
      "emissiveFactor": [
        0,
        0,
        0
      ],
      "alphaMode": "OPAQUE"
    },
    {
      "name": "__auto_6",
      "doubleSided": true,
      "pbrMetallicRoughness": {
        "baseColorFactor": [
          1,
          1,
          1,
          1
        ],
        "baseColorTexture": {
          "index": 5,
          "texCoord": 0
        },
        "metallicFactor": 0,
        "roughnessFactor": 0.5
      },
      "extensions": {
        "KHR_materials_ior": {
          "ior": 1.4500000476837158
        },
        "KHR_materials_specular": {
          "specularColorFactor": [
            0,
            0,
            0
          ]
        }
      },
      "emissiveFactor": [
        0,
        0,
        0
      ],
      "alphaMode": "OPAQUE"
    },
    {
      "name": "__auto_3",
      "doubleSided": true,
      "pbrMetallicRoughness": {
        "baseColorFactor": [
          1,
          1,
          1,
          1
        ],
        "baseColorTexture": {
          "index": 6,
          "texCoord": 0
        },
        "metallicFactor": 0,
        "roughnessFactor": 0.5
      },
      "extensions": {
        "KHR_materials_ior": {
          "ior": 1.4500000476837158
        },
        "KHR_materials_specular": {
          "specularColorFactor": [
            0,
            0,
            0
          ]
        }
      },
      "emissiveFactor": [
        0,
        0,
        0
      ],
      "alphaMode": "OPAQUE"
    }
  ],
  "textures": [
    {
      "source": 0,
      "sampler": 0
    },
    {
      "source": 1,
      "sampler": 0
    },
    {
      "source": 2,
      "sampler": 0
    },
    {
      "source": 3,
      "sampler": 0
    },
    {
      "source": 4,
      "sampler": 0
    },
    {
      "source": 5,
      "sampler": 0
    },
    {
      "source": 6,
      "sampler": 0
    }
  ],
  "samplers": [
    {
      "magFilter": 9729,
      "minFilter": 9987,
      "wrapS": 10497,
      "wrapT": 10497
    }
  ],
  "images": [
    {
      "name": "__auto_ (Base Color) image",
      "bufferView": 28,
      "mimeType": "image/png"
    },
    {
      "name": "__auto_1 (Base Color) image",
      "bufferView": 29,
      "mimeType": "image/png"
    },
    {
      "name": "__auto_2 (Base Color) image",
      "bufferView": 30,
      "mimeType": "image/png"
    },
    {
      "name": "__auto_4 (Base Color) image",
      "bufferView": 31,
      "mimeType": "image/png"
    },
    {
      "name": "__auto_5 (Base Color) image",
      "bufferView": 32,
      "mimeType": "image/png"
    },
    {
      "name": "__auto_6 (Base Color) image",
      "bufferView": 33,
      "mimeType": "image/png"
    },
    {
      "name": "__auto_3 (Base Color) image",
      "bufferView": 34,
      "mimeType": "image/png"
    }
  ]
}
