{
  "asset": {
    "generator": "Khronos glTF Blender I/O v4.1.63",
    "version": "2.0"
  },
  "extensionsUsed": [
    "KHR_materials_specular"
  ],
  "scene": 0,
  "scenes": [
    {
      "name": "Scene",
      "nodes": [
        0
      ]
    }
  ],
  "nodes": [
    {
      "mesh": 0,
      "name": "Line001",
      "scale": [
        0.0010000000474974513,
        0.0010000000474974513,
        0.0010000000474974513
      ],
      "translation": [
        0,
        0,
        16.512184143066406
      ],
      "rotation": [
        0,
        0,
        0,
        1
      ]
    }
  ],
  "materials": [
    {
      "doubleSided": true,
      "extensions": {
        "KHR_materials_specular": {
          "specularColorFactor": [
            2,
            2,
            2
          ]
        }
      },
      "name": "Material #27",
      "pbrMetallicRoughness": {
        "baseColorFactor": [
          0.5,
          0.5,
          0.5,
          1
        ],
        "metallicFactor": 0,
        "roughnessFactor": 0.5527864098548889
      },
      "emissiveFactor": [
        0,
        0,
        0
      ],
      "alphaMode": "OPAQUE"
    },
    {
      "doubleSided": true,
      "extensions": {
        "KHR_materials_specular": {
          "specularColorFactor": [
            2,
            2,
            2
          ]
        }
      },
      "name": "01 - Default",
      "pbrMetallicRoughness": {
        "baseColorTexture": {
          "index": 0,
          "texCoord": 0
        },
        "metallicFactor": 0,
        "roughnessFactor": 0.5527864098548889,
        "baseColorFactor": [
          1,
          1,
          1,
          1
        ]
      },
      "emissiveFactor": [
        0,
        0,
        0
      ],
      "alphaMode": "OPAQUE"
    },
    {
      "alphaMode": "BLEND",
      "doubleSided": true,
      "extensions": {
        "KHR_materials_specular": {
          "specularColorFactor": [
            2,
            2,
            2
          ]
        }
      },
      "name": "02",
      "pbrMetallicRoughness": {
        "baseColorTexture": {
          "index": 1,
          "texCoord": 0
        },
        "metallicFactor": 0,
        "roughnessFactor": 0.5527864098548889,
        "baseColorFactor": [
          1,
          1,
          1,
          1
        ]
      },
      "emissiveFactor": [
        0,
        0,
        0
      ]
    },
    {
      "doubleSided": true,
      "extensions": {
        "KHR_materials_specular": {
          "specularColorFactor": [
            2,
            2,
            2
          ]
        }
      },
      "name": "wood",
      "pbrMetallicRoughness": {
        "baseColorTexture": {
          "index": 2,
          "texCoord": 0
        },
        "metallicFactor": 0,
        "roughnessFactor": 0.5527864098548889,
        "baseColorFactor": [
          1,
          1,
          1,
          1
        ]
      },
      "emissiveFactor": [
        0,
        0,
        0
      ],
      "alphaMode": "OPAQUE"
    },
    {
      "alphaMode": "BLEND",
      "doubleSided": true,
      "extensions": {
        "KHR_materials_specular": {
          "specularColorFactor": [
            2,
            2,
            2
          ]
        }
      },
      "name": "texyure 04",
      "pbrMetallicRoughness": {
        "baseColorTexture": {
          "index": 3,
          "texCoord": 0
        },
        "metallicFactor": 0,
        "roughnessFactor": 0.5527864098548889,
        "baseColorFactor": [
          1,
          1,
          1,
          1
        ]
      },
      "emissiveFactor": [
        0,
        0,
        0
      ]
    },
    {
      "alphaMode": "BLEND",
      "doubleSided": true,
      "extensions": {
        "KHR_materials_specular": {
          "specularColorFactor": [
            2,
            2,
            2
          ]
        }
      },
      "name": "texyure 01",
      "pbrMetallicRoughness": {
        "baseColorTexture": {
          "index": 4,
          "texCoord": 0
        },
        "metallicFactor": 0,
        "roughnessFactor": 0.5527864098548889,
        "baseColorFactor": [
          1,
          1,
          1,
          1
        ]
      },
      "emissiveFactor": [
        0,
        0,
        0
      ]
    },
    {
      "alphaMode": "BLEND",
      "doubleSided": true,
      "extensions": {
        "KHR_materials_specular": {
          "specularColorFactor": [
            2,
            2,
            2
          ]
        }
      },
      "name": "texyure 06",
      "pbrMetallicRoughness": {
        "baseColorTexture": {
          "index": 5,
          "texCoord": 0
        },
        "metallicFactor": 0,
        "roughnessFactor": 0.5527864098548889,
        "baseColorFactor": [
          1,
          1,
          1,
          1
        ]
      },
      "emissiveFactor": [
        0,
        0,
        0
      ]
    },
    {
      "alphaMode": "BLEND",
      "doubleSided": true,
      "extensions": {
        "KHR_materials_specular": {
          "specularColorFactor": [
            2,
            2,
            2
          ]
        }
      },
      "name": "texyure 05",
      "pbrMetallicRoughness": {
        "baseColorTexture": {
          "index": 6,
          "texCoord": 0
        },
        "metallicFactor": 0,
        "roughnessFactor": 0.5527864098548889,
        "baseColorFactor": [
          1,
          1,
          1,
          1
        ]
      },
      "emissiveFactor": [
        0,
        0,
        0
      ]
    },
    {
      "alphaMode": "BLEND",
      "doubleSided": true,
      "extensions": {
        "KHR_materials_specular": {
          "specularColorFactor": [
            2,
            2,
            2
          ]
        }
      },
      "name": "texyure 03",
      "pbrMetallicRoughness": {
        "baseColorTexture": {
          "index": 7,
          "texCoord": 0
        },
        "metallicFactor": 0,
        "roughnessFactor": 0.5527864098548889,
        "baseColorFactor": [
          1,
          1,
          1,
          1
        ]
      },
      "emissiveFactor": [
        0,
        0,
        0
      ]
    }
  ],
  "meshes": [
    {
      "name": "Mesh",
      "primitives": [
        {
          "attributes": {
            "POSITION": 0,
            "NORMAL": 1,
            "TEXCOORD_0": 2
          },
          "indices": 3,
          "material": 0,
          "mode": 4
        },
        {
          "attributes": {
            "POSITION": 4,
            "NORMAL": 5,
            "TEXCOORD_0": 6
          },
          "indices": 7,
          "material": 1,
          "mode": 4
        },
        {
          "attributes": {
            "POSITION": 8,
            "NORMAL": 9,
            "TEXCOORD_0": 10
          },
          "indices": 11,
          "material": 2,
          "mode": 4
        },
        {
          "attributes": {
            "POSITION": 12,
            "NORMAL": 13,
            "TEXCOORD_0": 14
          },
          "indices": 15,
          "material": 3,
          "mode": 4
        },
        {
          "attributes": {
            "POSITION": 16,
            "NORMAL": 17,
            "TEXCOORD_0": 18
          },
          "indices": 19,
          "material": 4,
          "mode": 4
        },
        {
          "attributes": {
            "POSITION": 20,
            "NORMAL": 21,
            "TEXCOORD_0": 22
          },
          "indices": 23,
          "material": 5,
          "mode": 4
        },
        {
          "attributes": {
            "POSITION": 24,
            "NORMAL": 25,
            "TEXCOORD_0": 26
          },
          "indices": 27,
          "material": 6,
          "mode": 4
        },
        {
          "attributes": {
            "POSITION": 28,
            "NORMAL": 29,
            "TEXCOORD_0": 30
          },
          "indices": 31,
          "material": 7,
          "mode": 4
        },
        {
          "attributes": {
            "POSITION": 32,
            "NORMAL": 33,
            "TEXCOORD_0": 34
          },
          "indices": 35,
          "material": 8,
          "mode": 4
        }
      ]
    }
  ],
  "textures": [
    {
      "sampler": 0,
      "source": 0
    },
    {
      "sampler": 0,
      "source": 1
    },
    {
      "sampler": 0,
      "source": 2
    },
    {
      "sampler": 0,
      "source": 3
    },
    {
      "sampler": 0,
      "source": 4
    },
    {
      "sampler": 0,
      "source": 5
    },
    {
      "sampler": 0,
      "source": 6
    },
    {
      "sampler": 0,
      "source": 7
    }
  ],
  "images": [
    {
      "bufferView": 36,
      "mimeType": "image/png",
      "name": "01"
    },
    {
      "bufferView": 37,
      "mimeType": "image/png",
      "name": "texture 02"
    },
    {
      "bufferView": 38,
      "mimeType": "image/jpeg",
      "name": "WOOD_49_DIFFUSE"
    },
    {
      "bufferView": 39,
      "mimeType": "image/png",
      "name": "texture 04"
    },
    {
      "bufferView": 40,
      "mimeType": "image/png",
      "name": "texture 01"
    },
    {
      "bufferView": 41,
      "mimeType": "image/png",
      "name": "texture 06"
    },
    {
      "bufferView": 42,
      "mimeType": "image/png",
      "name": "texture 05"
    },
    {
      "bufferView": 43,
      "mimeType": "image/png",
      "name": "texture 03"
    }
  ],
  "accessors": [
    {
      "bufferView": 0,
      "componentType": 5126,
      "count": 8,
      "max": [
        18780.7890625,
        12472.451171875,
        -4105.76513671875
      ],
      "min": [
        18780.78515625,
        11414.125,
        -9156.9609375
      ],
      "type": "VEC3",
      "byteOffset": 0
    },
    {
      "bufferView": 1,
      "componentType": 5126,
      "count": 8,
      "type": "VEC3",
      "byteOffset": 0
    },
    {
      "bufferView": 2,
      "componentType": 5126,
      "count": 8,
      "type": "VEC2",
      "byteOffset": 0
    },
    {
      "bufferView": 3,
      "componentType": 5123,
      "count": 12,
      "type": "SCALAR",
      "byteOffset": 0
    },
    {
      "bufferView": 4,
      "componentType": 5126,
      "count": 26076,
      "max": [
        20730.23828125,
        15755.611328125,
        -712.3729248046875
      ],
      "min": [
        4632.9716796875,
        0,
        -12550.3505859375
      ],
      "type": "VEC3",
      "byteOffset": 0
    },
    {
      "bufferView": 5,
      "componentType": 5126,
      "count": 26076,
      "type": "VEC3",
      "byteOffset": 0
    },
    {
      "bufferView": 6,
      "componentType": 5126,
      "count": 26076,
      "type": "VEC2",
      "byteOffset": 0
    },
    {
      "bufferView": 7,
      "componentType": 5123,
      "count": 64950,
      "type": "SCALAR",
      "byteOffset": 0
    },
    {
      "bufferView": 8,
      "componentType": 5126,
      "count": 6,
      "max": [
        20123.8125,
        3197.22509765625,
        -5483.431640625
      ],
      "min": [
        20123.810546875,
        0,
        -7746.37109375
      ],
      "type": "VEC3",
      "byteOffset": 0
    },
    {
      "bufferView": 9,
      "componentType": 5126,
      "count": 6,
      "type": "VEC3",
      "byteOffset": 0
    },
    {
      "bufferView": 10,
      "componentType": 5126,
      "count": 6,
      "type": "VEC2",
      "byteOffset": 0
    },
    {
      "bufferView": 11,
      "componentType": 5123,
      "count": 12,
      "type": "SCALAR",
      "byteOffset": 0
    },
    {
      "bufferView": 12,
      "componentType": 5126,
      "count": 142,
      "max": [
        20730.23828125,
        15755.611328125,
        -712.3729248046875
      ],
      "min": [
        9281.90234375,
        3197.22509765625,
        -12550.3505859375
      ],
      "type": "VEC3",
      "byteOffset": 0
    },
    {
      "bufferView": 13,
      "componentType": 5126,
      "count": 142,
      "type": "VEC3",
      "byteOffset": 0
    },
    {
      "bufferView": 14,
      "componentType": 5126,
      "count": 142,
      "type": "VEC2",
      "byteOffset": 0
    },
    {
      "bufferView": 15,
      "componentType": 5123,
      "count": 360,
      "type": "SCALAR",
      "byteOffset": 0
    },
    {
      "bufferView": 16,
      "componentType": 5126,
      "count": 434,
      "max": [
        20730.23828125,
        11414.12890625,
        -1056.31201171875
      ],
      "min": [
        4632.9716796875,
        3395.15234375,
        -12206.4150390625
      ],
      "type": "VEC3",
      "byteOffset": 0
    },
    {
      "bufferView": 17,
      "componentType": 5126,
      "count": 434,
      "type": "VEC3",
      "byteOffset": 0
    },
    {
      "bufferView": 18,
      "componentType": 5126,
      "count": 434,
      "type": "VEC2",
      "byteOffset": 0
    },
    {
      "bufferView": 19,
      "componentType": 5123,
      "count": 870,
      "type": "SCALAR",
      "byteOffset": 0
    },
    {
      "bufferView": 20,
      "componentType": 5126,
      "count": 1010,
      "max": [
        20123.814453125,
        14200.05078125,
        -1056.3125
      ],
      "min": [
        4632.97265625,
        953.826904296875,
        -12206.4140625
      ],
      "type": "VEC3",
      "byteOffset": 0
    },
    {
      "bufferView": 21,
      "componentType": 5126,
      "count": 1010,
      "type": "VEC3",
      "byteOffset": 0
    },
    {
      "bufferView": 22,
      "componentType": 5126,
      "count": 1010,
      "type": "VEC2",
      "byteOffset": 0
    },
    {
      "bufferView": 23,
      "componentType": 5123,
      "count": 2454,
      "type": "SCALAR",
      "byteOffset": 0
    },
    {
      "bufferView": 24,
      "componentType": 5126,
      "count": 24,
      "max": [
        20730.23828125,
        11005.650390625,
        -5483.43212890625
      ],
      "min": [
        20123.810546875,
        3803.650146484375,
        -7746.37109375
      ],
      "type": "VEC3",
      "byteOffset": 0
    },
    {
      "bufferView": 25,
      "componentType": 5126,
      "count": 24,
      "type": "VEC3",
      "byteOffset": 0
    },
    {
      "bufferView": 26,
      "componentType": 5126,
      "count": 24,
      "type": "VEC2",
      "byteOffset": 0
    },
    {
      "bufferView": 27,
      "componentType": 5123,
      "count": 36,
      "type": "SCALAR",
      "byteOffset": 0
    },
    {
      "bufferView": 28,
      "componentType": 5126,
      "count": 58,
      "max": [
        18780.7890625,
        15380.90234375,
        -1056.312255859375
      ],
      "min": [
        6166.4326171875,
        11414.125,
        -12206.41796875
      ],
      "type": "VEC3",
      "byteOffset": 0
    },
    {
      "bufferView": 29,
      "componentType": 5126,
      "count": 58,
      "type": "VEC3",
      "byteOffset": 0
    },
    {
      "bufferView": 30,
      "componentType": 5126,
      "count": 58,
      "type": "VEC2",
      "byteOffset": 0
    },
    {
      "bufferView": 31,
      "componentType": 5123,
      "count": 114,
      "type": "SCALAR",
      "byteOffset": 0
    },
    {
      "bufferView": 32,
      "componentType": 5126,
      "count": 1066,
      "max": [
        20123.814453125,
        9912.208984375,
        -1056.3125
      ],
      "min": [
        4632.97265625,
        4099.8388671875,
        -12206.4140625
      ],
      "type": "VEC3",
      "byteOffset": 0
    },
    {
      "bufferView": 33,
      "componentType": 5126,
      "count": 1066,
      "type": "VEC3",
      "byteOffset": 0
    },
    {
      "bufferView": 34,
      "componentType": 5126,
      "count": 1066,
      "type": "VEC2",
      "byteOffset": 0
    },
    {
      "bufferView": 35,
      "componentType": 5123,
      "count": 2706,
      "type": "SCALAR",
      "byteOffset": 0
    }
  ],
  "bufferViews": [
    {
      "buffer": 0,
      "byteLength": 96,
      "byteOffset": 0,
      "target": 34962,
      "byteStride": 12
    },
    {
      "buffer": 0,
      "byteLength": 96,
      "byteOffset": 96,
      "target": 34962,
      "byteStride": 12
    },
    {
      "buffer": 0,
      "byteLength": 64,
      "byteOffset": 192,
      "target": 34962,
      "byteStride": 8
    },
    {
      "buffer": 0,
      "byteLength": 24,
      "byteOffset": 256,
      "target": 34963
    },
    {
      "buffer": 0,
      "byteLength": 312912,
      "byteOffset": 280,
      "target": 34962,
      "byteStride": 12
    },
    {
      "buffer": 0,
      "byteLength": 312912,
      "byteOffset": 313192,
      "target": 34962,
      "byteStride": 12
    },
    {
      "buffer": 0,
      "byteLength": 208608,
      "byteOffset": 626104,
      "target": 34962,
      "byteStride": 8
    },
    {
      "buffer": 0,
      "byteLength": 129900,
      "byteOffset": 834712,
      "target": 34963
    },
    {
      "buffer": 0,
      "byteLength": 72,
      "byteOffset": 964616,
      "target": 34962,
      "byteStride": 12
    },
    {
      "buffer": 0,
      "byteLength": 72,
      "byteOffset": 964688,
      "target": 34962,
      "byteStride": 12
    },
    {
      "buffer": 0,
      "byteLength": 48,
      "byteOffset": 964760,
      "target": 34962,
      "byteStride": 8
    },
    {
      "buffer": 0,
      "byteLength": 24,
      "byteOffset": 964808,
      "target": 34963
    },
    {
      "buffer": 0,
      "byteLength": 1704,
      "byteOffset": 964832,
      "target": 34962,
      "byteStride": 12
    },
    {
      "buffer": 0,
      "byteLength": 1704,
      "byteOffset": 966536,
      "target": 34962,
      "byteStride": 12
    },
    {
      "buffer": 0,
      "byteLength": 1136,
      "byteOffset": 968240,
      "target": 34962,
      "byteStride": 8
    },
    {
      "buffer": 0,
      "byteLength": 720,
      "byteOffset": 969376,
      "target": 34963
    },
    {
      "buffer": 0,
      "byteLength": 5208,
      "byteOffset": 970096,
      "target": 34962,
      "byteStride": 12
    },
    {
      "buffer": 0,
      "byteLength": 5208,
      "byteOffset": 975304,
      "target": 34962,
      "byteStride": 12
    },
    {
      "buffer": 0,
      "byteLength": 3472,
      "byteOffset": 980512,
      "target": 34962,
      "byteStride": 8
    },
    {
      "buffer": 0,
      "byteLength": 1740,
      "byteOffset": 983984,
      "target": 34963
    },
    {
      "buffer": 0,
      "byteLength": 12120,
      "byteOffset": 985728,
      "target": 34962,
      "byteStride": 12
    },
    {
      "buffer": 0,
      "byteLength": 12120,
      "byteOffset": 997848,
      "target": 34962,
      "byteStride": 12
    },
    {
      "buffer": 0,
      "byteLength": 8080,
      "byteOffset": 1009968,
      "target": 34962,
      "byteStride": 8
    },
    {
      "buffer": 0,
      "byteLength": 4908,
      "byteOffset": 1018048,
      "target": 34963
    },
    {
      "buffer": 0,
      "byteLength": 288,
      "byteOffset": 1022960,
      "target": 34962,
      "byteStride": 12
    },
    {
      "buffer": 0,
      "byteLength": 288,
      "byteOffset": 1023248,
      "target": 34962,
      "byteStride": 12
    },
    {
      "buffer": 0,
      "byteLength": 192,
      "byteOffset": 1023536,
      "target": 34962,
      "byteStride": 8
    },
    {
      "buffer": 0,
      "byteLength": 72,
      "byteOffset": 1023728,
      "target": 34963
    },
    {
      "buffer": 0,
      "byteLength": 696,
      "byteOffset": 1023800,
      "target": 34962,
      "byteStride": 12
    },
    {
      "buffer": 0,
      "byteLength": 696,
      "byteOffset": 1024496,
      "target": 34962,
      "byteStride": 12
    },
    {
      "buffer": 0,
      "byteLength": 464,
      "byteOffset": 1025192,
      "target": 34962,
      "byteStride": 8
    },
    {
      "buffer": 0,
      "byteLength": 228,
      "byteOffset": 1025656,
      "target": 34963
    },
    {
      "buffer": 0,
      "byteLength": 12792,
      "byteOffset": 1025888,
      "target": 34962,
      "byteStride": 12
    },
    {
      "buffer": 0,
      "byteLength": 12792,
      "byteOffset": 1038680,
      "target": 34962,
      "byteStride": 12
    },
    {
      "buffer": 0,
      "byteLength": 8528,
      "byteOffset": 1051472,
      "target": 34962,
      "byteStride": 8
    },
    {
      "buffer": 0,
      "byteLength": 5412,
      "byteOffset": 1060000,
      "target": 34963
    },
    {
      "buffer": 0,
      "byteOffset": 1065416,
      "byteLength": 81770
    },
    {
      "buffer": 0,
      "byteOffset": 1147192,
      "byteLength": 6508
    },
    {
      "buffer": 0,
      "byteOffset": 1153704,
      "byteLength": 10297
    },
    {
      "buffer": 0,
      "byteOffset": 1164008,
      "byteLength": 107544
    },
    {
      "buffer": 0,
      "byteOffset": 1271552,
      "byteLength": 60755
    },
    {
      "buffer": 0,
      "byteOffset": 1332312,
      "byteLength": 45808
    },
    {
      "buffer": 0,
      "byteOffset": 1378120,
      "byteLength": 48043
    },
    {
      "buffer": 0,
      "byteOffset": 1426168,
      "byteLength": 52861
    }
  ],
  "samplers": [
    {
      "magFilter": 9729,
      "minFilter": 9987,
      "wrapS": 10497,
      "wrapT": 10497
    }
  ],
  "buffers": [
    {
      "name": "output",
      "byteLength": 1479032,
      "uri": "data:application/octet-stream;base64,"
    }
  ]
}
